<svg xmlns="http://www.w3.org/2000/svg" width="40" height="40" fill="none"><path fill="#F5F6FA" d="M20 37.813c16.925-4.76 14.214-14.136 12.14-20.24-2.227-6.555.77-11.113.77-11.113C23.405 5.867 20 2.188 20 2.188S16.594 5.867 7.09 6.46c0 0 2.997 4.558.77 11.113-2.074 6.104-4.785 15.48 12.14 20.24Z"/><path fill="#D1D5DA" d="M11.402 9.103a17.393 17.393 0 0 1-.583 9.475c-1.135 3.339-2.115 6.842-.587 9.744 1.362 2.584 4.645 4.68 9.768 6.235 5.125-1.555 8.406-3.65 9.768-6.235 1.528-2.902.548-6.406-.587-9.744a17.39 17.39 0 0 1-.583-9.475c-4.096-.71-6.87-1.969-8.598-3.024-1.728 1.055-4.502 2.314-8.598 3.024Z"/><path fill="#F5F6FA" d="M20 26.881a6.563 6.563 0 1 0 0-13.126 6.563 6.563 0 0 0 0 13.126Z"/><path fill="#009A44" d="m24.093 18.561-1.383-1.383-3.515 3.515-1.905-1.905-1.383 1.383 3.286 3.287.002-.002.002.002 4.896-4.897Z"/></svg>