<svg xmlns="http://www.w3.org/2000/svg" width="40" height="40" fill="none"><path fill="#009A44" d="M27.188 27.6v-4.575H24.23a9.671 9.671 0 0 0-1.18-2.84l2.094-2.095-3.236-3.234-2.094 2.094a9.674 9.674 0 0 0-2.84-1.181v-2.957H12.4v2.96a9.75 9.75 0 0 0-2.84 1.178l-2.093-2.093L4.23 18.09l2.094 2.094a9.746 9.746 0 0 0-1.178 2.84h-2.96V27.6h2.957a9.662 9.662 0 0 0 1.18 2.84L4.23 32.535l3.236 3.236 2.093-2.094c.878.542 1.837.94 2.841 1.18v2.956h4.575v-2.96a9.75 9.75 0 0 0 2.84-1.178l2.093 2.094 3.235-3.235-2.093-2.094a9.743 9.743 0 0 0 1.177-2.84l2.96.001Zm-12.5.778a3.066 3.066 0 1 1-.001-6.132 3.066 3.066 0 0 1 0 6.132Z"/><path fill="#D1D5DA" d="M37.813 10.712V8.075h-1.705a5.573 5.573 0 0 0-.68-1.638l1.206-1.206-1.865-1.865-1.206 1.206a5.574 5.574 0 0 0-1.638-.68V2.188h-2.637v1.706a5.63 5.63 0 0 0-1.637.679l-1.207-1.207-1.865 1.865 1.207 1.207a5.63 5.63 0 0 0-.679 1.636h-1.706v2.638h1.704c.138.579.368 1.132.68 1.638l-1.206 1.206 1.865 1.865 1.206-1.206c.506.312 1.06.542 1.638.68v1.704h2.637v-1.706a5.63 5.63 0 0 0 1.637-.679l1.207 1.208 1.865-1.866-1.207-1.207c.312-.506.54-1.059.679-1.637h1.706Zm-7.206 1.747a3.066 3.066 0 1 1 0-6.132 3.066 3.066 0 0 1 0 6.132ZM21.893 26.631v-2.637H20.19a5.578 5.578 0 0 0-.68-1.638l1.206-1.207-1.865-1.864-1.206 1.206a5.59 5.59 0 0 0-1.638-.68v-1.705H13.37v1.706a5.63 5.63 0 0 0-1.637.68l-1.207-1.208-1.865 1.865 1.207 1.207a5.628 5.628 0 0 0-.68 1.638H7.482v2.637h1.705c.138.579.368 1.132.68 1.638l-1.206 1.206 1.865 1.865 1.207-1.206a5.566 5.566 0 0 0 1.637.68v1.704h2.638v-1.706a5.62 5.62 0 0 0 1.637-.678l1.207 1.207 1.865-1.865-1.207-1.207c.31-.507.54-1.06.677-1.638h1.706Zm-7.206 1.747a3.066 3.066 0 1 1 0-6.131 3.066 3.066 0 0 1 0 6.13Z"/></svg>