<svg xmlns="http://www.w3.org/2000/svg" width="40" height="40" fill="none"><path fill="#F5F6FA" d="M35.538 12.104H16.395v6.668h19.143a3.334 3.334 0 0 0 0-6.667Z"/><path fill="#D1D5DA" d="M11.182 6.227a5.91 5.91 0 0 0-5.91 5.909v17.531h11.82V12.136a5.91 5.91 0 0 0-5.91-5.91Z"/><path fill="#777A90" d="M18.365 28.773H4a2 2 0 0 0-2 2v3h18.365v-3a2 2 0 0 0-2-2Z"/><path fill="#009A44" d="M18.174 18.772h5.224l2.006-6.667h-5.223l-2.007 6.667ZM27.448 18.772h5.224l2.003-6.667h-5.22l-2.007 6.667Z"/><path fill="#fff" d="M12.516 13.544H9.849c-.92 0-1.667.746-1.667 1.667v7.121c0 .921.746 1.667 1.667 1.667h2.667c.92 0 1.666-.746 1.666-1.666V15.21c0-.92-.746-1.667-1.666-1.667Z"/></svg>