<svg xmlns="http://www.w3.org/2000/svg" width="40" height="40" fill="none"><g clip-path="url(#a)"><path fill="#777A90" d="M35.368 34.375V40H4.632v-5.625c-.006-7.874 6.373-14.261 14.246-14.267H21.1c7.874-.006 14.262 6.372 14.268 14.246v.021Z"/><path fill="#D1D5DA" d="M30.091 10.053c-.017 5.56-4.532 10.058-10.093 10.055a9.95 9.95 0 0 1-3.347-.57c-5.233-1.868-7.961-7.623-6.094-12.856S18.179-1.28 23.412.588a10.06 10.06 0 0 1 6.68 9.465Z"/><path fill="#777A90" d="M10.223 7.604c2.086.78 4.297 1.17 6.524 1.153 5.175 0 9.59-1.96 11.326-4.716-3.342-4.459-9.666-5.364-14.124-2.022a10.089 10.089 0 0 0-3.726 5.585Z"/><path fill="#D1D5DA" d="M29.124 32.294a.846.846 0 0 0-.846.846V40h1.692v-6.86a.846.846 0 0 0-.845-.846h-.001Zm-17.933 0a.846.846 0 0 0-.847.846V40h1.693v-6.86a.846.846 0 0 0-.846-.846Z"/><path fill="#009A44" d="M23.393 20.292a3.397 3.397 0 0 1-6.786 0 14.345 14.345 0 0 1 2.293-.184h2.2c.768 0 1.535.06 2.293.184Z"/><path fill="#009A44" d="M16.883 31.832c0 3.527 1.876 4.452 3.255 4.452s3.255-.925 3.255-4.452-1.457-8.319-3.255-8.319c-1.798 0-3.255 4.791-3.255 8.319Z"/></g><defs><clipPath id="a"><path fill="#fff" d="M0 0h40v40H0z"/></clipPath></defs></svg>