<svg xmlns="http://www.w3.org/2000/svg" width="40" height="40" fill="none"><path fill="#F5F6FA" d="M26.913 7.656V37.97H2.03V2.03h19.257l5.625 5.625Z"/><path fill="#D1D5DA" d="M9.844 4.453H7.969a.547.547 0 1 1 0-1.094h1.875a.547.547 0 1 1 0 1.094ZM26.913 7.656h-5.625V2.031l5.625 5.625ZM23.925 12.787H5.019a.547.547 0 0 1 0-1.094h18.906a.547.547 0 0 1 0 1.094ZM23.925 15.287H5.019a.547.547 0 1 1 0-1.093h18.906a.547.547 0 0 1 0 1.093ZM22.053 17.788H5.02a.547.547 0 1 1 0-1.094h17.034a.547.547 0 1 1 0 1.094ZM21.072 20.288H5.019a.547.547 0 1 1 0-1.094h16.053a.547.547 0 0 1 0 1.094ZM21.022 22.79H5.019a.547.547 0 1 1 0-1.093h16.003a.547.547 0 0 1 0 1.094ZM21.894 25.29H5.019a.547.547 0 1 1 0-1.093h16.875a.547.547 0 1 1 0 1.094ZM23.925 27.79H5.019a.547.547 0 1 1 0-1.093h18.906a.547.547 0 0 1 0 1.094ZM23.925 30.291H5.019a.547.547 0 1 1 0-1.093h18.906a.547.547 0 0 1 0 1.093ZM23.925 32.792H5.019a.547.547 0 1 1 0-1.094h18.906a.547.547 0 0 1 0 1.094ZM23.925 35.287H5.019a.547.547 0 0 1 0-1.094h18.906a.547.547 0 0 1 0 1.094Z"/><path fill="#313647" d="m32.892 34.296.578-1.78-1.78-.58.577-1.78-1.783-.579-3.022-5.928 1.67-.852 1.671-.851 7.166 14.057-1.103 1.966-2.238-.263-.535-1.05.58-1.782-1.781-.578Z"/><path fill="#009A44" d="M28.28 26.594a5.469 5.469 0 1 0 0-10.937 5.469 5.469 0 0 0 0 10.937Z"/><path fill="#313647" d="M27.453 20.907a1.406 1.406 0 1 0 0-2.811 1.406 1.406 0 0 0 0 2.811Z"/></svg>