<svg xmlns="http://www.w3.org/2000/svg" width="40" height="40" fill="none"><g clip-path="url(#a)"><path fill="#D1D5DA" d="m32.909 18.913.477 4.27-3.94 1.718-1.718 3.94-1.226-.136-3.044-.34L20 30.91l-3.458-2.546-3.044.34-1.226.137-1.718-3.94-3.94-1.718.477-4.27-2.546-3.458 2.546-3.458-.477-4.27 3.94-1.718 1.718-3.94 4.27.477L20 0l3.458 2.546 4.27-.477 1.718 3.94 3.94 1.719-.477 4.27 2.546 3.457-2.546 3.458Z"/><path fill="#009A44" d="M20 23.643a8.188 8.188 0 1 0 0-16.375 8.188 8.188 0 0 0 0 16.375Z"/><path fill="#777A90" d="M26.502 28.705V40L20 36.767 13.498 40V28.705l3.044-.341L20 30.91l3.458-2.546 3.044.34Z"/></g><defs><clipPath id="a"><path fill="#fff" d="M0 0h40v40H0z"/></clipPath></defs></svg>