<svg xmlns="http://www.w3.org/2000/svg" width="30" height="30" fill="none"><path fill="#009A44" d="M25.851 18.04H20.84c2.101-3.331 3.165-6.355 3.165-9.004C24.004 4.054 19.952 0 14.971 0S5.937 4.053 5.937 9.036c0 2.65 1.064 5.673 3.165 9.005H4.09L.88 30h28.183l-3.21-11.96ZM7.695 9.037c0-4.013 3.264-7.278 7.276-7.278 4.012 0 7.276 3.265 7.276 7.278 0 2.607-1.303 5.85-3.767 9.38a41.007 41.007 0 0 1-3.51 4.336 40.97 40.97 0 0 1-3.508-4.336c-2.465-3.53-3.767-6.773-3.767-9.38ZM5.438 19.798h4.846c1.61 2.248 3.084 3.873 4.687 5.456 1.55-1.532 3.001-3.102 4.687-5.456h4.846l2.267 8.444H3.17l2.267-8.444Z"/></svg>