<svg xmlns="http://www.w3.org/2000/svg" width="30" height="30" fill="none"><path fill="#009A44" d="M19.043 8.613V2.637A2.64 2.64 0 0 0 16.406 0H3.516A2.64 2.64 0 0 0 .879 2.637v24.726A2.64 2.64 0 0 0 3.516 30h12.89a2.64 2.64 0 0 0 2.637-2.637v-5.39h10.02V8.613h-10.02Zm6.562 1.758-7.44 5.526-7.442-5.526h14.882Zm-8.32 16.992a.88.88 0 0 1-.879.88H3.516a.88.88 0 0 1-.88-.88V2.637a.88.88 0 0 1 .88-.88h12.89a.88.88 0 0 1 .88.88v5.976H7.265v13.36h10.02v5.39Zm10.02-7.148H9.023v-8.917l9.141 6.789 9.14-6.789v8.917Z"/></svg>