<svg xmlns="http://www.w3.org/2000/svg" width="30" height="30" fill="none"><g fill="#009A44" clip-path="url(#a)"><path d="m21.075 23.959-2.784-2.784a2.063 2.063 0 0 0-2.913 0l-1.224 1.223a15.562 15.562 0 0 1-6.552-6.553l1.223-1.223a2.063 2.063 0 0 0 0-2.913L6.041 8.924a2.063 2.063 0 0 0-2.914 0L.9 11.152c-1.164 1.164-1.2 3.215-.102 5.776.99 2.31 2.805 4.852 5.114 7.16 2.308 2.308 4.85 4.125 7.16 5.114 1.24.532 2.362.798 3.321.798 1.02 0 1.855-.3 2.455-.9l2.227-2.228c.39-.389.604-.906.604-1.456 0-.55-.214-1.068-.604-1.457Zm-1.243 1.67-2.227 2.228c-.603.603-2.039.502-3.841-.27-2.108-.904-4.456-2.588-6.61-4.742-2.153-2.154-3.837-4.5-4.74-6.609-.773-1.802-.874-3.238-.27-3.841l2.226-2.227a.302.302 0 0 1 .428 0l2.784 2.784a.303.303 0 0 1 0 .427l-2.109 2.109.266.56a17.314 17.314 0 0 0 8.213 8.213l.56.265 2.109-2.108a.301.301 0 0 1 .427 0l2.784 2.784a.3.3 0 0 1 0 .427Z"/><path d="M27.29 2.271C25.581.807 23.318 0 20.917 0c-2.401 0-4.664.807-6.373 2.271-1.748 1.498-2.71 3.501-2.71 5.64s.962 4.142 2.71 5.64c.313.268.645.514.993.738a14.98 14.98 0 0 1-2.238 2.648 14.805 14.805 0 0 0 5.18-1.402c.784.189 1.603.287 2.438.287 2.401 0 4.664-.807 6.373-2.271C29.038 12.053 30 10.05 30 7.91s-.962-4.142-2.71-5.64Zm-6.373 11.793c-4.039 0-7.325-2.76-7.325-6.153s3.286-6.153 7.325-6.153 7.325 2.76 7.325 6.153-3.286 6.153-7.325 6.153Z"/><path d="M20.917 9.083a1.172 1.172 0 1 0 0-2.344 1.172 1.172 0 0 0 0 2.344ZM16.815 9.083a1.172 1.172 0 1 0 0-2.344 1.172 1.172 0 0 0 0 2.344ZM25.02 9.083a1.172 1.172 0 1 0 0-2.344 1.172 1.172 0 0 0 0 2.344Z"/></g><defs><clipPath id="a"><path fill="#fff" d="M0 0h30v30H0z"/></clipPath></defs></svg>