<svg xmlns="http://www.w3.org/2000/svg" width="32" height="32" fill="none"><mask id="a" width="32" height="32" x="0" y="0" maskUnits="userSpaceOnUse" style="mask-type:alpha"><circle cx="16" cy="16" r="16" fill="#C4C4C4"/></mask><g clip-path="url(#b)" mask="url(#a)"><path fill="#fff" d="M15.75 49.921c15.826 0 28.656-12.843 28.656-28.687 0-15.843-12.83-28.687-28.656-28.687-15.826 0-28.656 12.844-28.656 28.687 0 15.844 12.83 28.687 28.656 28.687Z"/><path fill="#20120C" d="M18.842 7.295s-2.003-3.423-6.336-2.403c-4.637 1.09-3.548 6.084-2.67 7.28 4.72 6.471 2.88 4.396 5.937 4.138 3.783-.316 2.214.036 3.865-2.485 1.534-2.345 1.98-6.237-.796-6.53Z"/><path fill="#E5AF9C" d="M18.467 12.723s.047-4.443-4.825-5.088c-3.314-.445-4.345 2.661-4.415 6.847-.07 4.185 1.171 6.928 4.017 6.307 2.998-.669 4.778-2.064 5.48-4.315 0 0 2.308-.234 2.12-2.72-.222-2.754-2.377-1.031-2.377-1.031Z"/><path fill="#E5AF9C" d="M11.722 24.892s1.311-.563 1.323-4.947l6.101-4.42s.14 7.75 1.733 8.804c0 0-.808 8.582-5.562 8.804-2.893.13-3.338-6.107-3.595-8.241Z"/><path fill="#D39784" d="M12.377 12.418s-.76 1.688-1.23 2.345c-.433.598.258.996 1.36.715.432-.105-.13-3.06-.13-3.06Z"/><path fill="#F8B001" d="M11.722 24.892s2.412 4.748 3.232 4.783c.75.035 4.075-2.99 5.914-5.346 0 0 18.034 1.946 23.527 16.178 0 0-25.635 22.861-51.504.845.011.011 5.89-13.881 18.83-16.46Z"/><path fill="#20120C" d="M10.176 13.098a.527.527 0 1 0-.001-1.055.527.527 0 0 0 0 1.055ZM14.778 13.098a.527.527 0 1 0 0-1.054.527.527 0 0 0 0 1.054ZM15.773 10.495a7.713 7.713 0 0 0-1.159-.082c-.281 0-.492.317-.468.586.035.305.292.47.585.47s.586.023.867.07c.679.094.855-.938.175-1.044ZM10.2 10.308a2.515 2.515 0 0 0-.422 0c-.141.352-.211.727-.293 1.102.023 0 .047 0 .07-.012.047-.012.105-.023.152-.035.024 0 .047-.012.07-.012h.375c.27.012.55-.234.55-.504a.538.538 0 0 0-.503-.54Z"/><path fill="#20120C" d="M17.905 9.698s0 5.17-1.23 5.92c-1.23.763-7.424.223-7.424.223s-.223 3.271.831 4.338c1.066 1.067 4.052 1.548 5.691.434 1.64-1.114 2.87-1.97 3.034-8.125 0 .012.28-2.497-.902-2.79Z"/><path fill="#fff" d="m10.972 17.518 2.565-.27s.07 1.02-1.16 1.137c-1.194.118-1.405-.867-1.405-.867Z"/></g><defs><clipPath id="b"><path fill="#fff" d="M-13-7.5h57.5V51H-13z"/></clipPath></defs></svg>