<svg xmlns="http://www.w3.org/2000/svg" width="32" height="32" fill="none"><mask id="a" width="32" height="32" x="0" y="0" maskUnits="userSpaceOnUse" style="mask-type:alpha"><circle cx="16" cy="16" r="16" fill="#C4C4C4"/></mask><g clip-path="url(#b)" mask="url(#a)"><path fill="#20120C" d="M10.505 5.96s2.312-2.88 6.263-1.872c5.91 1.498 4.651 6.25 2.534 8.273-4.394 4.19 1.134 7.64.54 11.99-.877 6.463-6.431 6.856-8.744 6.624C8.218 30.68.493 28.978.742 21.873c.097-2.737 3.783-5.572 4.66-9.681.531-2.514 1.267-6.17 5.103-6.232Z"/><path fill="#E5AF9C" d="M12.312 13.038S12.534 9 15.838 8.617c2.507-.286 3.402 2.567 3.455 5.75.062 3.191-.877 5.277-3.03 4.796-2.268-.5-3.614-1.57-4.146-3.28 0 0-1.745-.18-1.604-2.07.16-2.085 1.799-.775 1.799-.775Z"/><path fill="#E5AF9C" d="M17.982 22.666s-2.622-.481-2.206-3.887l-3.5-3.342s-.132 6.267-2.507 6.855c0 0 1.338 6.098 4.935 6.267 2.18.098 3.083-4.261 3.278-5.893Z"/><path fill="#D39784" d="M17.158 13.02s.434 1.07.86 1.436c.416.365-.408.686-.745.722-.345.027-.115-2.158-.115-2.158ZM15.758 19.038s-1.541-.686-2.1-1.284c-.557-.597 0 1.418.231 1.837.416.74 1.258 1.4 2.17 1.506-.008 0-.442-.873-.3-2.059Z"/><path fill="#C5E3FF" d="M17.982 22.666s-1.586 4.886-2.835 4.895c-.833.009-4.066-4.003-5.387-5.269 0 0-11.047 1.114-17.072 11.874 0 0 17.259 19.194 36.83 2.452 0 0-2.19-9.931-11.536-13.952Z"/><path fill="#20120C" d="M18.576 13.324a.4.4 0 0 1-.399-.401.4.4 0 0 1 .399-.402.4.4 0 0 1 .398.402.4.4 0 0 1-.398.4ZM14.802 12.949a.399.399 0 1 1 .787-.127.399.399 0 1 1-.787.127ZM14.438 11.05c.293-.026.585-.026.877-.009.213.018.364.259.328.464-.035.232-.239.348-.46.33a3.32 3.32 0 0 0-.665.018c-.505.044-.585-.75-.08-.803ZM18.328 10.97c.221-.018.451.01.664.054.204.044.354.276.292.481a.408.408 0 0 1-.478.294c-.035-.009-.08-.018-.115-.026-.018 0-.036-.01-.053-.01H18.354c-.204.01-.416-.178-.416-.383a.423.423 0 0 1 .39-.41Z"/><path fill="#fff" d="m18.009 16.248-1.95-.134s-.026.776.913.838c.895.053 1.037-.704 1.037-.704Z"/></g><defs><clipPath id="b"><path fill="#fff" d="M34-2.5H-9.5v46H34z"/></clipPath></defs></svg>