<svg xmlns="http://www.w3.org/2000/svg" width="32" height="32" fill="none"><mask id="a" width="32" height="32" x="0" y="0" maskUnits="userSpaceOnUse" style="mask-type:alpha"><circle cx="16" cy="16" r="16" fill="#C4C4C4"/></mask><g clip-path="url(#b)" mask="url(#a)"><path fill="#fff" d="M18.073 40.76c11.948 0 21.634-9.685 21.634-21.633 0-11.948-9.686-21.634-21.634-21.634C6.126-2.507-3.56 7.18-3.56 19.127S6.126 40.76 18.073 40.76Z"/><path fill="#20120C" d="M17.487 7.555s1.716 2.2 4.268 2.39c2.552.206 9.68 1.511 15.136 6.674 5.382 5.089 3.754 10.266 2.816 11.748-4.796 7.597-17.307 4.165-23.731-5.222-6.41-9.386 1.51-15.59 1.51-15.59Z"/><path fill="#20120C" d="M17.457 8.01c-1.012-.558-3.226-.88-4.517-.734-2.303.279-4.84 1.628-4.019 5.999 1.159 6.16 7.143 4.913 9.343 2.61 1.819-1.862 2.083-6.306-.807-7.876Z"/><path fill="#20120C" d="M13.453 6.132c.206 1.526 1.1 2.655 2.626 2.45 2.097-.294 3.461-1.98 3.256-3.506-.206-1.525-1.394-2.86-3.579-2.566-1.525.205-2.625 1.26-2.303 3.622Z"/><path fill="#9C6639" d="M16.035 13.114s-.704-4.107-4.151-4.107c-2.61 0-3.197 3.021-2.89 6.292.323 3.256 1.526 5.28 3.682 4.547 2.273-.778 3.535-2.04 3.872-3.843 0 0 1.775-.382 1.408-2.303-.396-2.112-1.921-.586-1.921-.586Z"/><path fill="#9C6639" d="M12.69 23.057s.925-1.305.455-3.666l3.212-3.828s.587 5.793 2.494 6.702c0 0-1.144 4.488-3.374 4.884-2.229.396-2.39-2.449-2.786-4.092Z"/><path fill="#89532E" d="M11.048 13.759s-.44 1.1-.865 1.481c-.426.381.425.704.777.733.352.03.088-2.214.088-2.214Z"/><path fill="#fff" d="M16.093 15.665a.587.587 0 0 0 .69.47.587.587 0 0 0 .469-.69.587.587 0 0 0-.69-.469.602.602 0 0 0-.469.69Z"/><path fill="#89532E" d="M13.19 19.552s1.51-.88 2.009-1.555c.498-.674.19 1.467-.015 1.907-.381.748-1.159 1.335-1.995 1.745 0 0 .191-.938 0-2.097Z"/><path fill="#FDDDDF" d="M.415 32.327c1.232-3.154 8.389-7.832 12.261-9.27 0 0 .235 2.112 1.643 2.127 1.745.03 3.608-1.247 4.517-2.919 0 0 9.035.822 17.556 10.56 0 0-5.353 7.891-11.748 8.962-22.367 3.71-24.23-9.46-24.23-9.46Z"/><path fill="#20120C" d="M9.493 14.008a.396.396 0 1 0 0-.792.396.396 0 0 0 0 .792ZM12.867 13.979a.396.396 0 1 0 0-.792.396.396 0 0 0 0 .792ZM13.615 11.764a5.878 5.878 0 0 0-.88-.015c-.22.015-.367.264-.323.455.044.235.25.337.455.323.22-.015.44 0 .66.014.513.059.601-.733.088-.777ZM9.743 11.676a1.98 1.98 0 0 0-.66.059.403.403 0 0 0-.294.484.415.415 0 0 0 .484.293c.044-.014.074-.014.118-.03.014 0 .044 0 .058-.014h.279a.404.404 0 0 0 .41-.381.428.428 0 0 0-.395-.41Z"/><path fill="#fff" d="m10.065 16.839 2.2-.22s.03 1.276-1.026 1.364c-1.027.102-1.174-1.144-1.174-1.144Z"/></g><defs><clipPath id="b"><path fill="#fff" d="M-4-2.8h44v44H-4z"/></clipPath></defs></svg>