<svg xmlns="http://www.w3.org/2000/svg" width="32" height="32" fill="none"><mask id="a" width="32" height="32" x="0" y="0" maskUnits="userSpaceOnUse" style="mask-type:alpha"><circle cx="16" cy="16" r="16" fill="#C4C4C4"/></mask><g clip-path="url(#b)" mask="url(#a)"><path fill="#fff" d="M16.333 41.361c-12.66 0-22.925-10.289-22.925-22.981 0-12.692 10.264-22.981 22.925-22.981 12.662 0 22.925 10.289 22.925 22.981 0 12.692-10.264 22.981-22.925 22.981Z"/><path fill="#20120C" d="M12.773 6.688s1.546-3.334 5.753-2.376c6.277 1.418 4.637 4.385 2.829 6.865-3.785 5.175-2.399 5.841-4.853 5.691-3.035-.178-3.494.094-5.593-4.423-1.218-2.602-2.183-5.588 1.864-5.757Z"/><path fill="#E5AF9C" d="M13.991 11.947s.234-4.085 3.607-4.62c2.642-.423 3.663 2.61 3.813 5.963.14 3.353-.796 5.579-3.082 5.128-2.408-.47-3.944-1.653-4.553-3.438 0 0-1.762-.046-1.668-2.037.094-2.114 1.883-.996 1.883-.996Z"/><path fill="#E5AF9C" d="M20.23 22.071s-2.117-.714-1.76-4.32l-4.966-3.41s.534 6.875-1.958 7.552c0 0 1.574 6.386 5.378 6.47 2.304.047 3.147-4.573 3.307-6.292Z"/><path fill="#D39784" d="M19.032 11.637s.571 1.4 1.02 1.775c.45.376-.233 1.024-1.123.817-.357-.075.103-2.592.103-2.592ZM18.432 18.446s-2.286-.676-3.635-1.785c-.665-.544-.197 1.024.843 2.18.6.666 2.192 1.596 3.157 1.68-.01 0-.356-.648-.365-2.075Z"/><path fill="#477849" d="M20.23 22.071s-1.367 1.183-3.438 1.193c-.88 0-3.84-.066-5.255-1.371 0 0-13.632 1.455-17.735 12.96 0 0 20.957 17.788 41.203-.366 0 .009-4.375-10.613-14.774-12.416Z"/><path fill="#20120C" d="M20.184 11.797c.01.234.197.413.43.403a.413.413 0 0 0 .404-.431.413.413 0 0 0-.431-.404.425.425 0 0 0-.403.432ZM16.605 11.853c.01.235.197.413.431.404a.413.413 0 0 0 .403-.432.412.412 0 0 0-.431-.404.432.432 0 0 0-.403.432ZM16.183 9.928c.31-.038.619-.047.928-.038.225.01.384.263.356.48-.038.243-.244.365-.478.356-.234-.01-.468.01-.703.037-.534.066-.646-.77-.103-.835ZM20.287 9.74c.234-.019.478-.01.703.038.215.037.384.281.327.497a.437.437 0 0 1-.496.329.552.552 0 0 0-.122-.019c-.019 0-.037 0-.056-.01h-.019c-.093 0-.187 0-.28.01a.433.433 0 0 1-.45-.394c0-.235.159-.432.393-.451Z"/><path fill="#fff" d="m20.09 15.309-2.06-.094s-.01.817.983.855c.946.037 1.077-.761 1.077-.761ZM13.991 11.947l.038-.282 1.649.216a1.5 1.5 0 0 1 1.452-1.371 1.487 1.487 0 0 1 1.499 1.212.787.787 0 0 1 .75-.02 1.498 1.498 0 0 1 1.442-1.277 1.512 1.512 0 0 1 1.536 1.465 1.495 1.495 0 0 1-2.988.123.538.538 0 0 0-.712.018 1.495 1.495 0 0 1-1.452 1.465 1.503 1.503 0 0 1-1.527-1.343l-1.687-.206Zm6.896 1.183a1.215 1.215 0 0 0 1.161-1.005l-.75-.103-.037-.291.797.113a1.22 1.22 0 0 0-1.247-1.146c-.665.019-1.199.573-1.18 1.249.028.667.59 1.202 1.256 1.183Zm-3.692.094a1.216 1.216 0 0 0 1.18-1.249 1.21 1.21 0 0 0-1.245-1.183 1.216 1.216 0 0 0 .065 2.432ZM20.23 22.071l-2.135 3.494-1.677-2.31-2.361 2.413-2.52-3.775s4.16 2.93 8.694.178Z"/></g><defs><clipPath id="b"><path fill="#fff" d="M39.333-4.667h-46v47.333h46z"/></clipPath></defs></svg>