<svg xmlns="http://www.w3.org/2000/svg" width="12" height="13" fill="none"><path fill="#fff" d="M7.239 13a.417.417 0 0 1-.306-.126.417.417 0 0 1-.126-.306v-2.304H1.1a.439.439 0 0 1-.324-.126.454.454 0 0 1-.108-.306V8.608c0-.072.012-.156.036-.252a.852.852 0 0 1 .162-.288L6.177.706C6.333.502 6.555.4 6.843.4h1.962c.12 0 .222.042.306.126a.417.417 0 0 1 .126.306V8.14h1.602c.144 0 .252.042.324.126a.381.381 0 0 1 .126.306v1.26c0 .12-.042.222-.126.306a.417.417 0 0 1-.306.126h-1.62v2.304c0 .12-.042.222-.126.306a.417.417 0 0 1-.306.126H7.239ZM3.17 8.212h3.69V3.01L3.17 8.212Z"/></svg>