<svg xmlns="http://www.w3.org/2000/svg" width="10" height="13" fill="none"><path fill="#fff" d="M.67 13a.417.417 0 0 1-.306-.126.417.417 0 0 1-.126-.306v-.918c0-.108.024-.234.072-.378.06-.156.186-.312.378-.468l2.844-2.826A39.284 39.284 0 0 0 5.44 6.394c.492-.444.846-.846 1.062-1.206.228-.372.342-.738.342-1.098 0-.54-.15-.978-.45-1.314-.288-.336-.75-.504-1.386-.504-.42 0-.774.09-1.062.27a1.87 1.87 0 0 0-.684.684 3.09 3.09 0 0 0-.324.954c-.024.156-.09.264-.198.324a.662.662 0 0 1-.324.09H.814a.366.366 0 0 1-.27-.108.345.345 0 0 1-.108-.252C.448 3.718.556 3.22.76 2.74c.204-.492.498-.924.882-1.296a4.42 4.42 0 0 1 1.44-.918C3.646.298 4.282.184 4.99.184c.996 0 1.818.168 2.466.504.66.336 1.152.792 1.476 1.368.336.576.504 1.224.504 1.944 0 .564-.108 1.086-.324 1.566a5.348 5.348 0 0 1-.936 1.368c-.408.432-.9.876-1.476 1.332l-2.556 2.592h5.13c.132 0 .234.042.306.126a.381.381 0 0 1 .126.306v1.278c0 .12-.042.222-.126.306a.381.381 0 0 1-.306.126H.67Z"/></svg>