<svg xmlns="http://www.w3.org/2000/svg" width="60" height="60" fill="none"><path fill="#D1D5DA" d="M27.709 39.252a1.542 1.542 0 0 1-1.542-1.542v-4.724L20.12 30l6.047-2.987V22.29a1.542 1.542 0 0 1 1.542-1.542h17.274V7.927A1.929 1.929 0 0 0 43.056 6H18.193a1.927 1.927 0 0 0-1.928 1.928V52.07a1.928 1.928 0 0 0 1.928 1.927h24.863a1.928 1.928 0 0 0 1.927-1.927V39.252H27.71Z"/><path fill="#777A90" d="M23.131 6h14.987v1.928a1.928 1.928 0 0 1-1.928 1.927H25.06a1.928 1.928 0 0 1-1.928-1.927V6ZM28.677 47.058h3.894a1.542 1.542 0 0 1 0 3.084h-3.894a1.542 1.542 0 0 1 0-3.084Z"/><path fill="#009A44" d="M26.167 22.29v4.723L20.12 30l6.047 2.986v4.724a1.542 1.542 0 0 0 1.542 1.542h21.516a1.542 1.542 0 0 0 1.543-1.542V22.29a1.542 1.542 0 0 0-1.543-1.543H27.71a1.542 1.542 0 0 0-1.542 1.542Z"/><path fill="#313647" d="M31.504 31.482a1.481 1.481 0 1 1 0-2.963 1.481 1.481 0 0 1 0 2.963ZM38.467 31.482a1.482 1.482 0 1 1 0-2.963 1.482 1.482 0 0 1 0 2.963ZM45.43 31.482a1.481 1.481 0 1 1 0-2.963 1.481 1.481 0 0 1 0 2.963Z"/></svg>