<svg xmlns="http://www.w3.org/2000/svg" width="60" height="60" fill="none"><path fill="#D1D5DA" d="m16.34 19.39 3.076-3.073 9.734 9.749-3.076 3.072-9.735-9.748Z"/><path fill="#009A44" d="M48.642 23.222a8.39 8.39 0 0 1-8.948 1.894l-5.752 5.756-3.075 3.07-5.751 5.752a8.381 8.381 0 0 1-10.533 10.95l4.87-4.87-1.101-4.126-4.125-1.101-4.87 4.87a8.382 8.382 0 0 1 10.95-10.533l5.75-5.751 3.076-3.07 5.751-5.757a8.381 8.381 0 0 1 10.533-10.95l-4.87 4.87 1.101 4.126 4.125 1.101 4.87-4.87a8.379 8.379 0 0 1-2 8.639Z"/><path fill="#D1D5DA" d="m17.862 13.153-4.712 4.712-4.244-6.27 2.687-2.686 6.27 4.244Z"/><path fill="#777A90" d="m19.396 16.326-3.073 3.073-3.173-1.534 4.712-4.712 1.534 3.173ZM37.934 30.222l-1.673-1.675-7.714 7.717 1.673 1.673a1.126 1.126 0 0 0 1.59-.009 1.506 1.506 0 0 1 2.13-.011 1.504 1.504 0 0 1-.012 2.129l-.797.8 8.787 8.79a5.54 5.54 0 0 0 7.726.155 5.427 5.427 0 0 0 .116-7.744l-8.918-8.917-.797.8a1.506 1.506 0 0 1-2.13.011 1.506 1.506 0 0 1 .013-2.13 1.125 1.125 0 0 0 .006-1.59Z"/><path fill="#009A44" d="M45.188 46.013a.819.819 0 0 1-.58-.241l-7.021-7.022a.82.82 0 0 1 1.16-1.16l7.023 7.022a.82.82 0 0 1-.583 1.4Z"/></svg>