<svg xmlns="http://www.w3.org/2000/svg" width="11" height="14" fill="none"><path fill="#fff" d="M5.93 13.18c-.84 0-1.567-.102-2.179-.306-.612-.204-1.122-.468-1.53-.792a3.722 3.722 0 0 1-.9-1.08 2.732 2.732 0 0 1-.324-1.17.31.31 0 0 1 .108-.252.43.43 0 0 1 .288-.108h1.62c.12 0 .222.024.306.072.084.048.156.144.216.288.108.324.282.582.522.774.252.192.54.33.864.414.324.072.666.108 1.026.108.72 0 1.29-.168 1.71-.504.432-.348.648-.84.648-1.476s-.198-1.092-.594-1.368c-.396-.288-.948-.432-1.656-.432H4.201a.48.48 0 0 1-.324-.108.439.439 0 0 1-.126-.324V6.16c0-.12.024-.222.072-.306.06-.096.12-.174.18-.234l3.222-3.15H2.077a.439.439 0 0 1-.324-.126.454.454 0 0 1-.108-.306V.85a.48.48 0 0 1 .108-.324A.439.439 0 0 1 2.077.4H9.8c.132 0 .24.042.324.126a.439.439 0 0 1 .126.324v1.08a.57.57 0 0 1-.072.288 1.016 1.016 0 0 1-.162.216L6.901 5.638l.216.018c.732.06 1.38.228 1.944.504a2.95 2.95 0 0 1 1.332 1.17c.324.516.486 1.164.486 1.944 0 .816-.216 1.518-.648 2.106-.42.576-1.002 1.02-1.746 1.332-.744.312-1.596.468-2.556.468Z"/></svg>